<svg enable-background="new 0 0 121 121" height="121" viewBox="0 0 121 121" width="121" xmlns="http://www.w3.org/2000/svg"><path d="m60.5 10c27.846 0 50.5 22.654 50.5 50.5s-22.654 50.5-50.5 50.5-50.5-22.654-50.5-50.5 22.654-50.5 50.5-50.5m0-10c-33.413 0-60.5 27.087-60.5 60.5s27.087 60.5 60.5 60.5 60.5-27.087 60.5-60.5-27.087-60.5-60.5-60.5z" fill="#393b43"/><path d="m83 88.5c-1.298 0-2.595-.502-3.575-1.503l-22.5-23c-.913-.935-1.425-2.19-1.425-3.497v-37.984c0-2.761 2.239-5 5-5s5 2.239 5 5v35.945l21.074 21.542c1.931 1.974 1.896 5.14-.078 7.071-.972.952-2.234 1.426-3.496 1.426z" fill="#408992"/></svg>