<?xml version="1.0" encoding="utf-8"?>
<!-- Generator: Adobe Illustrator 16.0.0, SVG Export Plug-In . SVG Version: 6.00 Build 0)  -->
<!DOCTYPE svg PUBLIC "-//W3C//DTD SVG 1.1//EN" "http://www.w3.org/Graphics/SVG/1.1/DTD/svg11.dtd">
<svg version="1.1" id="Layer_1" xmlns="http://www.w3.org/2000/svg" xmlns:xlink="http://www.w3.org/1999/xlink" x="0px" y="0px"
	 width="42.146px" height="42.148px" viewBox="0 0 42.146 42.148" enable-background="new 0 0 42.146 42.148" xml:space="preserve">
<g>
	<path fill="#3A3B43" d="M21.073,3.483c9.699,0,17.59,7.892,17.59,17.591c0,9.699-7.891,17.589-17.59,17.589
		s-17.59-7.891-17.59-17.589C3.483,11.375,11.374,3.483,21.073,3.483 M21.073,0C9.436,0,0,9.436,0,21.074
		c0,11.638,9.436,21.074,21.073,21.074c11.64,0,21.073-9.436,21.073-21.074C42.146,9.436,32.713,0,21.073,0L21.073,0z"/>
</g>
<path fill="#418992" d="M26.913,22.403c-0.514-0.646-1.162-1.142-1.927-1.475c-0.641-0.279-1.43-0.54-2.352-0.778v-5.555
	c1.268,0.237,2.363,0.81,3.34,1.743l0.468,0.448l1.179-2.403l-0.239-0.24c-0.633-0.632-1.406-1.151-2.298-1.543
	c-0.755-0.33-1.552-0.552-2.376-0.663V9.238h-2.635v2.677c-0.918,0.133-1.751,0.406-2.478,0.813
	c-0.854,0.479-1.53,1.114-2.012,1.884c-0.486,0.778-0.733,1.665-0.733,2.634c0,1.117,0.282,2.039,0.837,2.738
	c0.535,0.675,1.206,1.196,1.996,1.547c0.663,0.294,1.489,0.578,2.463,0.845v5.234c-0.671-0.076-1.304-0.236-1.886-0.477
	c-0.729-0.301-1.466-0.77-2.194-1.391l-0.463-0.396l-1.172,2.381l0.257,0.24c0.745,0.695,1.625,1.246,2.616,1.635
	c0.852,0.334,1.78,0.552,2.769,0.646v2.659h2.635v-2.708c1.414-0.232,2.586-0.781,3.485-1.635c1.01-0.953,1.521-2.154,1.521-3.568
	C27.714,23.947,27.445,23.076,26.913,22.403z M24.768,25.045c0,0.723-0.217,1.284-0.661,1.717c-0.362,0.351-0.856,0.602-1.472,0.748
	v-4.473c0.645,0.216,1.158,0.464,1.529,0.739C24.576,24.083,24.768,24.487,24.768,25.045z M20.146,14.591v4.906
	c-0.705-0.235-1.266-0.51-1.668-0.82c-0.441-0.341-0.656-0.833-0.656-1.502c0-0.756,0.235-1.349,0.719-1.812
	C18.945,14.976,19.473,14.721,20.146,14.591z"/>
</svg>
