<svg enable-background="new 0 0 121 121" height="121" viewBox="0 0 121 121" width="121" xmlns="http://www.w3.org/2000/svg"><path d="m60.5 10c27.846 0 50.5 22.654 50.5 50.5s-22.654 50.5-50.5 50.5-50.5-22.654-50.5-50.5 22.654-50.5 50.5-50.5m0-10c-33.413 0-60.5 27.087-60.5 60.5s27.087 60.5 60.5 60.5 60.5-27.087 60.5-60.5-27.087-60.5-60.5-60.5z" fill="#3a3c44"/><g fill="#408a92"><path d="m76.5 94.505h-32c-3.86 0-7-3.141-7-7v-54.01c0-3.859 3.14-7 7-7h32c3.86 0 7 3.141 7 7v54.01c0 3.859-3.14 7-7 7zm-29-10h26v-48.01h-26z"/><path d="m85.836 36.766c3.129 0 5.667 2.538 5.667 5.667s-2.537 5.666-5.667 5.666"/><path d="m85.836 55.05c3.129 0 5.667 2.537 5.667 5.666 0 3.13-2.537 5.667-5.667 5.667"/><path d="m85.836 73.334c3.129 0 5.667 2.537 5.667 5.666 0 3.13-2.537 5.667-5.667 5.667"/><path d="m35.164 84.667c-3.129 0-5.667-2.538-5.667-5.667s2.537-5.666 5.667-5.666"/><path d="m35.164 66.383c-3.129 0-5.667-2.537-5.667-5.666 0-3.13 2.537-5.667 5.667-5.667"/><path d="m35.164 48.099c-3.129 0-5.667-2.537-5.667-5.666 0-3.13 2.537-5.667 5.667-5.667"/></g></svg>