<svg enable-background="new 0 0 45 45" height="45" viewBox="0 0 45 45" width="45" xmlns="http://www.w3.org/2000/svg"><path d="m22.5 3.719c10.355 0 18.781 8.425 18.781 18.78 0 10.356-8.426 18.781-18.781 18.781s-18.781-8.425-18.781-18.78c0-10.356 8.426-18.781 18.781-18.781m0-3.719c-12.427 0-22.5 10.073-22.5 22.5s10.073 22.5 22.5 22.5 22.5-10.074 22.5-22.5-10.073-22.5-22.5-22.5z" fill="#3a3c44"/><path d="m27.335 35.209h-9.978c-1.436 0-2.603-1.168-2.603-2.604l-.96-18.189c-.002-1.533 1.166-2.701 2.602-2.701h11.9c1.436 0 2.603 1.168 2.603 2.604l-.964 18.385c.003 1.337-1.164 2.505-2.6 2.505zm-8.917-3.719h7.859l.842-16.057h-9.549z" fill="#408b93"/><path d="m26.702 11.108c-.531 0-1.018.178-1.415.47-.743-1.115-2.009-1.851-3.449-1.851-1.261 0-2.375.575-3.136 1.462-.497-.384-1.112-.622-1.789-.622-1.625 0-2.942 1.318-2.942 2.943 0 .461.115.892.304 1.28-1.026.459-1.745 1.486-1.745 2.684 0 1.014.513 1.907 1.293 2.436-.564.44-.933 1.118-.933 1.888 0 1.327 1.075 2.402 2.402 2.402 1.326 0 2.401-1.075 2.401-2.402 0-.073-.015-.142-.021-.213.107.012.213.033.322.033 1.625 0 2.942-1.317 2.942-2.943 0-.281-.052-.547-.126-.804.331.084.671.144 1.027.144 1.659 0 3.081-.982 3.743-2.392.336.179.714.29 1.121.29 1.326 0 2.402-1.076 2.402-2.402s-1.075-2.403-2.401-2.403z" fill="#fff"/><path d="m15.292 24.943c-1.734 0-3.146-1.411-3.146-3.146 0-.671.214-1.311.603-1.841-.613-.672-.963-1.554-.963-2.483 0-1.211.6-2.332 1.571-3.014-.086-.312-.13-.629-.13-.949 0-2.033 1.654-3.687 3.687-3.687.589 0 1.159.142 1.68.415.895-.804 2.047-1.255 3.245-1.255 1.403 0 2.721.6 3.643 1.631.385-.165.799-.25 1.222-.25 1.734 0 3.146 1.411 3.146 3.146s-1.412 3.146-3.146 3.146c-.268 0-.531-.035-.791-.106-.926 1.403-2.54 2.264-4.231 2.205-.04 1.863-1.469 3.39-3.289 3.585-.26 1.477-1.551 2.603-3.101 2.603zm1.621-13.632c-1.212 0-2.198.987-2.198 2.199 0 .321.077.642.229.955.088.181.099.39.03.579s-.212.342-.396.424c-.793.355-1.305 1.142-1.305 2.005 0 .729.361 1.41.967 1.82.196.134.317.354.325.591s-.099.465-.286.611c-.41.32-.646.794-.646 1.302 0 .914.744 1.658 1.658 1.658s1.657-.744 1.657-1.658c-.001-.01-.017-.133-.018-.143-.021-.223.059-.444.219-.602s.383-.235.605-.208l.113.015c.041.006.083.014.125.014 1.212 0 2.198-.987 2.198-2.199 0-.179-.03-.369-.097-.598-.074-.256-.005-.532.181-.724s.463-.269.718-.203c.322.082.591.121.844.121 1.305 0 2.51-.771 3.07-1.964.086-.184.245-.325.438-.389.194-.067.403-.047.585.049 1.146.611 2.43-.282 2.43-1.456 0-.915-.744-1.659-1.658-1.659-.348 0-.685.113-.975.326-.164.12-.368.168-.569.133-.2-.035-.377-.151-.49-.32-.634-.951-1.692-1.52-2.83-1.52-.979 0-1.916.438-2.571 1.203-.258.301-.705.346-1.02.104-.393-.304-.855-.466-1.333-.466z" fill="#408b93"/></svg>