<?xml version="1.0" encoding="utf-8"?>
<!-- Generator: Adobe Illustrator 16.0.0, SVG Export Plug-In . SVG Version: 6.00 Build 0)  -->
<!DOCTYPE svg PUBLIC "-//W3C//DTD SVG 1.1//EN" "http://www.w3.org/Graphics/SVG/1.1/DTD/svg11.dtd">
<svg version="1.1" id="Layer_1" xmlns="http://www.w3.org/2000/svg" xmlns:xlink="http://www.w3.org/1999/xlink" x="0px" y="0px"
	 width="42.146px" height="42.147px" viewBox="0 0 42.146 42.147" enable-background="new 0 0 42.146 42.147" xml:space="preserve">
<g>
	<path fill="#3A3B43" d="M21.073,3.483c9.699,0,17.59,7.892,17.59,17.591s-7.891,17.59-17.59,17.59s-17.59-7.891-17.59-17.59
		S11.374,3.483,21.073,3.483 M21.073,0C9.436,0,0,9.436,0,21.074c0,11.638,9.436,21.073,21.073,21.073
		c11.64,0,21.073-9.436,21.073-21.073C42.146,9.436,32.713,0,21.073,0L21.073,0z"/>
</g>
<g>
	<path fill="#418992" d="M21.072,32.783c6.016,0,9.319-4.006,9.319-4.006c-1.477-2.521-3.948-4.387-6.874-5.064
		c2.608-0.988,4.469-3.502,4.469-6.458c0-3.817-3.096-6.912-6.912-6.912c-3.817,0-6.913,3.095-6.913,6.912
		c0,2.956,1.859,5.47,4.468,6.458c-2.927,0.678-5.396,2.543-6.874,5.064C11.755,28.777,15.057,32.783,21.072,32.783z"/>
</g>
</svg>
