<?xml version="1.0" encoding="utf-8"?>
<!-- Generator: Adobe Illustrator 16.0.0, SVG Export Plug-In . SVG Version: 6.00 Build 0)  -->
<!DOCTYPE svg PUBLIC "-//W3C//DTD SVG 1.1//EN" "http://www.w3.org/Graphics/SVG/1.1/DTD/svg11.dtd">
<svg version="1.1" id="Layer_1" xmlns="http://www.w3.org/2000/svg" xmlns:xlink="http://www.w3.org/1999/xlink" x="0px" y="0px"
	 width="42.146px" height="42.147px" viewBox="0 0 42.146 42.147" enable-background="new 0 0 42.146 42.147" xml:space="preserve">
<g>
	<path fill="#3A3B43" d="M21.073,3.484c9.699,0,17.59,7.891,17.59,17.591c0,9.699-7.891,17.589-17.59,17.589
		s-17.59-7.891-17.59-17.589C3.483,11.375,11.374,3.484,21.073,3.484 M21.073,0C9.436,0,0,9.436,0,21.075
		c0,11.637,9.436,21.073,21.073,21.073c11.64,0,21.073-9.436,21.073-21.073C42.146,9.436,32.713,0,21.073,0L21.073,0z"/>
</g>
<g>
	<g>
		<path fill="#418992" d="M27.393,18.027l-1.652-1.652c-0.06-0.06-0.157-0.06-0.218,0l-5.767,5.767l-3.133-3.132
			c-0.061-0.061-0.157-0.061-0.218,0l-1.652,1.652c-0.06,0.061-0.06,0.157,0,0.218l4.895,4.895c0.019,0.019,0.043,0.021,0.067,0.027
			c0.014,0.006,0.026,0.018,0.041,0.018c0.016,0,0.027-0.012,0.042-0.018c0.023-0.006,0.048-0.008,0.067-0.027l7.528-7.528
			C27.454,18.185,27.454,18.087,27.393,18.027z"/>
	</g>
	<g>
		<path fill="#418992" d="M21.074,32.846c-0.182,0-0.364-0.048-0.526-0.143l-1.753-1.027l-2.019,0.226
			c-0.37,0.043-0.742-0.121-0.962-0.428l-1.183-1.651l-1.937-0.615c-0.359-0.114-0.628-0.413-0.704-0.782l-0.409-1.989l-1.518-1.35
			c-0.282-0.25-0.406-0.632-0.325-1l0.435-1.984L9.335,20.25c-0.155-0.343-0.112-0.743,0.11-1.046l1.205-1.635l-0.015-2.032
			c-0.002-0.376,0.198-0.725,0.526-0.912l1.767-1.004l0.813-1.86c0.151-0.345,0.477-0.582,0.852-0.619l2.021-0.199l1.5-1.369
			c0.279-0.254,0.674-0.338,1.029-0.219l1.93,0.641L23,9.355c0.358-0.119,0.752-0.035,1.029,0.218l1.501,1.37l2.023,0.199
			c0.374,0.037,0.7,0.274,0.851,0.619l0.813,1.86l1.767,1.004c0.327,0.187,0.529,0.535,0.526,0.912l-0.014,2.032l1.205,1.635
			c0.224,0.304,0.266,0.704,0.11,1.047l-0.839,1.85l0.436,1.985c0.081,0.367-0.043,0.75-0.325,1l-1.519,1.35l-0.409,1.989
			c-0.076,0.369-0.345,0.668-0.704,0.782l-1.937,0.615l-1.183,1.651c-0.22,0.307-0.59,0.471-0.962,0.428l-2.019-0.226l-1.751,1.027
			C21.438,32.798,21.256,32.846,21.074,32.846z M19.022,29.563c0.185,0,0.366,0.049,0.526,0.143l1.524,0.895l1.523-0.895
			c0.193-0.113,0.419-0.161,0.643-0.137l1.756,0.197l1.029-1.437c0.131-0.183,0.317-0.317,0.531-0.386l1.685-0.535l0.355-1.73
			c0.045-0.22,0.161-0.419,0.329-0.568l1.32-1.174l-0.379-1.726c-0.049-0.219-0.024-0.448,0.068-0.652l0.729-1.61l-1.048-1.423
			c-0.133-0.181-0.204-0.4-0.203-0.624l0.012-1.768l-1.537-0.874c-0.194-0.111-0.349-0.282-0.439-0.488l-0.706-1.618l-1.76-0.173
			c-0.223-0.022-0.433-0.116-0.599-0.267l-1.306-1.191l-1.676,0.557c-0.213,0.071-0.443,0.072-0.656,0l-1.678-0.557l-1.305,1.191
			c-0.166,0.151-0.377,0.245-0.6,0.267l-1.76,0.173l-0.708,1.618c-0.09,0.206-0.244,0.377-0.438,0.488l-1.537,0.873l0.013,1.768
			c0.001,0.224-0.07,0.443-0.202,0.624l-1.049,1.423l0.729,1.61c0.093,0.204,0.116,0.433,0.068,0.652l-0.377,1.726l1.32,1.174
			c0.168,0.149,0.283,0.349,0.328,0.568l0.355,1.73l1.685,0.535c0.214,0.068,0.4,0.203,0.531,0.386l1.028,1.437l1.756-0.197
			C18.945,29.564,18.983,29.563,19.022,29.563z"/>
	</g>
</g>
</svg>
