<?xml version="1.0" encoding="utf-8"?>
<!-- Generator: Adobe Illustrator 16.0.0, SVG Export Plug-In . SVG Version: 6.00 Build 0)  -->
<!DOCTYPE svg PUBLIC "-//W3C//DTD SVG 1.1//EN" "http://www.w3.org/Graphics/SVG/1.1/DTD/svg11.dtd">
<svg version="1.1" id="Layer_1" xmlns="http://www.w3.org/2000/svg" xmlns:xlink="http://www.w3.org/1999/xlink" x="0px" y="0px"
	 width="42.146px" height="42.147px" viewBox="0 0 42.146 42.147" enable-background="new 0 0 42.146 42.147" xml:space="preserve">
<path fill="#3A3C44" d="M21.073,3.483c9.699,0,17.59,7.891,17.59,17.591c0,9.699-7.891,17.59-17.59,17.59s-17.59-7.891-17.59-17.59
	C3.483,11.374,11.374,3.483,21.073,3.483 M21.073,0C9.436,0,0,9.436,0,21.074c0,11.638,9.436,21.073,21.073,21.073
	c11.64,0,21.073-9.436,21.073-21.073C42.146,9.436,32.713,0,21.073,0L21.073,0z"/>
<path fill="#408B93" d="M30.216,13.615c-0.001-0.844-0.682-1.625-1.519-1.741l-12.443-1.73c-0.908-0.126-1.604,0.524-1.604,1.4
	l0.003,0.836l-0.002,0.486l0.016,11.114c-0.479-0.275-1.019-0.423-1.566-0.423c-1.763,0.004-3.194,1.439-3.191,3.2
	c0.004,1.759,1.438,3.19,3.201,3.19c0.854-0.002,1.656-0.337,2.258-0.942s0.931-1.408,0.927-2.26l-0.014-12.12l12.31,1.709
	l0.012,9.715c-0.476-0.273-1.016-0.419-1.569-0.419c-1.76,0.003-3.188,1.439-3.186,3.201c0.004,1.757,1.437,3.188,3.194,3.188h0.005
	c0.852,0,1.652-0.333,2.256-0.937c0.603-0.604,0.935-1.407,0.934-2.262L30.216,13.615z M27.042,31.698L27.042,31.698L27.042,31.698
	L27.042,31.698z"/>
</svg>
