<svg enable-background="new 0 0 121 121" height="121" viewBox="0 0 121 121" width="121" xmlns="http://www.w3.org/2000/svg"><path d="m60.5 10c27.846 0 50.5 22.654 50.5 50.5s-22.654 50.5-50.5 50.5-50.5-22.654-50.5-50.5 22.654-50.5 50.5-50.5m0-10c-33.413 0-60.5 27.087-60.5 60.5s27.087 60.5 60.5 60.5 60.5-27.087 60.5-60.5-27.087-60.5-60.5-60.5z" fill="#3a3c44"/><g fill="#408a92"><path d="m73.5 89.5h-32c-3.859 0-7-3.14-7-7v-44c0-3.86 3.141-7 7-7h32c3.859 0 7 3.14 7 7v44c0 3.86-3.141 7-7 7zm-29-10h26v-38h-26z"/><path d="m75.5 80.5v-10c6.479 0 11.75-4.374 11.75-9.75s-5.271-9.75-11.75-9.75v-10c11.993 0 21.75 8.86 21.75 19.75s-9.757 19.75-21.75 19.75z"/></g></svg>