<svg enable-background="new 0 0 121 121" height="121" viewBox="0 0 121 121" width="121" xmlns="http://www.w3.org/2000/svg"><path d="m60.5 10c27.846 0 50.5 22.654 50.5 50.5s-22.654 50.5-50.5 50.5-50.5-22.654-50.5-50.5 22.654-50.5 50.5-50.5m0-10c-33.413 0-60.5 27.087-60.5 60.5s27.087 60.5 60.5 60.5 60.5-27.087 60.5-60.5-27.087-60.5-60.5-60.5z" fill="#393b43"/><g fill="#408992"><path d="m92.674 57.031c-8.595-8.594-20.021-13.326-32.174-13.326s-23.579 4.732-32.174 13.327l-7.07-7.071c10.482-10.483 24.42-16.256 39.244-16.256s28.762 5.773 39.244 16.255z"/><path d="m39.245 67.951-7.07-7.071c7.565-7.566 17.626-11.734 28.325-11.734 10.699 0 20.759 4.167 28.324 11.733l-7.07 7.071c-5.678-5.677-13.226-8.804-21.254-8.804-8.029 0-15.577 3.127-21.255 8.805z"/><path d="m70.54 79.165c-5.535-5.534-14.541-5.536-20.08 0l-7.071-7.071c9.437-9.435 24.787-9.433 34.222 0z"/><path d="m60.5 89.204-6.781-6.782c3.738-3.739 9.824-3.739 13.562 0z"/></g></svg>