<?xml version="1.0" encoding="utf-8"?>
<!-- Generator: Adobe Illustrator 16.0.0, SVG Export Plug-In . SVG Version: 6.00 Build 0)  -->
<!DOCTYPE svg PUBLIC "-//W3C//DTD SVG 1.1//EN" "http://www.w3.org/Graphics/SVG/1.1/DTD/svg11.dtd">
<svg version="1.1" id="Layer_1" xmlns="http://www.w3.org/2000/svg" xmlns:xlink="http://www.w3.org/1999/xlink" x="0px" y="0px"
	 width="20.686px" height="20.249px" viewBox="0 0 20.686 20.249" enable-background="new 0 0 20.686 20.249" xml:space="preserve">
<g>
	<g>
		<path fill="#FFFFFF" d="M19.163,16.875H1.523C0.684,16.875,0,16.191,0,15.351V4.9c0-0.84,0.684-1.523,1.523-1.523h17.64
			c0.84,0,1.522,0.684,1.522,1.523v10.45C20.686,16.191,20.003,16.875,19.163,16.875z M1.74,15.135h17.205V5.117H1.74V15.135z"/>
	</g>
</g>
<g>
	<g>
		<path fill="#FFFFFF" d="M18.095,18.399c0,1.021-0.828,1.85-1.852,1.85c-1.021,0-1.85-0.828-1.85-1.85"/>
	</g>
	<g>
		<path fill="#FFFFFF" d="M12.124,18.399c0,1.021-0.83,1.85-1.853,1.85c-1.021,0-1.85-0.828-1.85-1.85"/>
	</g>
	<g>
		<path fill="#FFFFFF" d="M6.151,18.399c0,1.021-0.829,1.85-1.851,1.85s-1.851-0.828-1.851-1.85"/>
	</g>
	<g>
		<path fill="#FFFFFF" d="M2.45,1.851C2.45,0.829,3.279,0,4.301,0s1.851,0.829,1.851,1.851"/>
	</g>
	<g>
		<path fill="#FFFFFF" d="M8.422,1.851C8.422,0.829,9.25,0,10.271,0c1.022,0,1.853,0.829,1.853,1.851"/>
	</g>
	<g>
		<path fill="#FFFFFF" d="M14.394,1.851c0-1.021,0.828-1.851,1.85-1.851c1.023,0,1.852,0.829,1.852,1.851"/>
	</g>
</g>
</svg>
