<?xml version="1.0" encoding="utf-8"?>
<!-- Generator: Adobe Illustrator 16.0.0, SVG Export Plug-In . SVG Version: 6.00 Build 0)  -->
<!DOCTYPE svg PUBLIC "-//W3C//DTD SVG 1.1//EN" "http://www.w3.org/Graphics/SVG/1.1/DTD/svg11.dtd">
<svg version="1.1" id="Layer_1" xmlns="http://www.w3.org/2000/svg" xmlns:xlink="http://www.w3.org/1999/xlink" x="0px" y="0px"
	 width="42.146px" height="42.147px" viewBox="0 0 42.146 42.147" enable-background="new 0 0 42.146 42.147" xml:space="preserve">
<g>
	<path fill="#3A3B43" d="M21.073,3.483c9.699,0,17.59,7.892,17.59,17.591s-7.891,17.59-17.59,17.59s-17.59-7.891-17.59-17.59
		S11.374,3.483,21.073,3.483 M21.073,0C9.436,0,0,9.436,0,21.074c0,11.638,9.436,21.073,21.073,21.073
		c11.64,0,21.073-9.436,21.073-21.073C42.146,9.436,32.713,0,21.073,0L21.073,0z"/>
</g>
<g>
	<g>
		<path fill="#418992" d="M11.104,19.698v10.313c0,1.138,0.925,2.063,2.062,2.063h6.875c1.138,0,2.063-0.925,2.063-2.063v-1.375
			h5.333l0.771,0.771c0.39,0.391,0.907,0.604,1.458,0.604c0.552,0,1.069-0.214,1.459-0.604l1.375-1.375
			c0.39-0.389,0.604-0.906,0.604-1.458c0-0.551-0.215-1.068-0.604-1.458l-2.75-2.75c-0.39-0.39-0.908-0.604-1.459-0.604h-5.5
			c-0.241,0-0.472,0.044-0.687,0.121v-2.184c0-0.896-0.575-1.657-1.376-1.941v-0.809c0-1.137-0.925-2.063-2.063-2.063h-1.375v-0.688
			h2.063c0.379,0,0.687-0.308,0.687-0.688v-0.688h1.778l1.174,1.174c0.134,0.135,0.31,0.201,0.485,0.201
			c0.177,0,0.353-0.066,0.486-0.201c0.269-0.269,0.269-0.704,0-0.972L22.59,11.65c-0.129-0.129-0.304-0.202-0.485-0.202h-2.183
			c-0.284-0.799-1.047-1.375-1.943-1.375h-2.75c-1.137,0-2.063,0.926-2.063,2.063v1.375c0,0.38,0.309,0.688,0.688,0.688h2.062v0.688
			h-1.375c-1.137,0-2.063,0.926-2.063,2.063v0.809C11.679,18.041,11.104,18.803,11.104,19.698z M18.666,12.823h-4.125v-0.688
			c0-0.379,0.309-0.688,0.688-0.688h2.75c0.38,0,0.688,0.309,0.688,0.688V12.823z M19.354,16.948v0.688h-5.5v-0.688
			c0-0.379,0.308-0.688,0.687-0.688h4.125C19.046,16.261,19.354,16.569,19.354,16.948z M20.729,27.261
			c-0.184,0-0.355-0.071-0.486-0.201l-2.75-2.75c-0.129-0.13-0.201-0.303-0.201-0.486s0.072-0.355,0.202-0.485
			c0.26-0.261,0.712-0.261,0.972,0l2.348,2.347c0.129,0.129,0.304,0.201,0.486,0.201h3.556c0.379,0,0.687-0.308,0.687-0.688
			c0-0.379-0.308-0.688-0.687-0.688h-2.063c-0.379,0-0.687-0.308-0.687-0.688c0-0.379,0.308-0.688,0.687-0.688h5.5
			c0.184,0,0.356,0.071,0.487,0.202l2.75,2.75c0.129,0.13,0.2,0.302,0.2,0.485s-0.071,0.356-0.201,0.486l-1.375,1.375
			c-0.26,0.26-0.713,0.26-0.973,0l-0.972-0.972c-0.129-0.129-0.304-0.202-0.486-0.202H20.729z M12.479,19.698
			c0-0.379,0.309-0.688,0.688-0.688h6.875c0.38,0,0.688,0.309,0.688,0.688v3.959l-1.291-1.292c-0.39-0.39-0.907-0.604-1.459-0.604
			c-0.551,0-1.068,0.215-1.458,0.604s-0.604,0.907-0.604,1.458c0,0.552,0.215,1.069,0.604,1.458l2.75,2.75
			c0.39,0.391,0.908,0.604,1.458,0.604v1.375c0,0.38-0.308,0.688-0.688,0.688h-6.875c-0.379,0-0.688-0.308-0.688-0.688V19.698z"/>
		<path fill="#418992" d="M25.051,17.18c0-0.568-0.706-1.282-0.922-1.487c-0.154-0.146-0.396-0.146-0.549,0
			c-0.217,0.205-0.923,0.919-0.923,1.487c0,0.66,0.536,1.196,1.197,1.196C24.514,18.376,25.051,17.84,25.051,17.18z"/>
	</g>
</g>
</svg>
