<?xml version="1.0" encoding="utf-8"?>
<!-- Generator: Adobe Illustrator 16.0.0, SVG Export Plug-In . SVG Version: 6.00 Build 0)  -->
<!DOCTYPE svg PUBLIC "-//W3C//DTD SVG 1.1//EN" "http://www.w3.org/Graphics/SVG/1.1/DTD/svg11.dtd">
<svg version="1.1" id="Layer_1" xmlns="http://www.w3.org/2000/svg" xmlns:xlink="http://www.w3.org/1999/xlink" x="0px" y="0px"
	 width="288px" height="74.074px" viewBox="0 0 288 74.074" enable-background="new 0 0 288 74.074" xml:space="preserve">
<g>
	<g>
		<g>
			<path fill="#404249" d="M12.646,70.677c-3.965-2.266-7.07-5.395-9.296-9.387C1.114,57.291,0,52.841,0,47.939
				c0-5.035,1.085-9.551,3.257-13.543c2.17-3.993,5.201-7.108,9.104-9.34c3.9-2.233,8.302-3.352,13.212-3.352
				c7.421,0,13.586,2.831,18.493,8.492c0.628,0.692,0.94,1.509,0.94,2.454c0,1.384-0.69,2.544-2.077,3.488
				c-0.627,0.444-1.351,0.664-2.169,0.664c-1.447,0-2.673-0.57-3.678-1.698c-1.572-1.702-3.287-2.942-5.145-3.729
				c-1.855-0.786-3.977-1.179-6.365-1.179c-4.844,0-8.778,1.62-11.796,4.858c-3.021,3.244-4.53,7.537-4.53,12.884
				c0,3.395,0.708,6.43,2.12,9.104c1.414,2.676,3.401,4.766,5.945,6.273c2.552,1.51,5.458,2.266,8.73,2.266
				c4.276,0,7.735-1.104,10.377-3.303c1.194-0.879,2.361-1.32,3.493-1.32c0.879,0,1.698,0.287,2.455,0.85
				c1.192,1.002,1.792,2.139,1.792,3.396c0,0.945-0.378,1.793-1.128,2.547c-4.535,4.215-10.198,6.322-16.988,6.322
				C21.068,74.074,16.61,72.939,12.646,70.677z"/>
			<path fill="#404249" d="M113.565,71.48c-2.166-1.479-3.85-3.551-5.045-6.23c-1.197-2.672-1.795-5.674-1.795-9.008V4.72
				c0-1.383,0.442-2.515,1.323-3.396C108.927,0.443,110.062,0,111.444,0c1.383,0,2.518,0.443,3.4,1.324
				c0.878,0.882,1.319,2.013,1.319,3.396v51.521c0,2.328,0.437,4.246,1.319,5.754c0.878,1.508,2.014,2.266,3.396,2.266h2.365
				c1.257,0,2.277,0.438,3.066,1.32c0.785,0.883,1.181,2.016,1.181,3.398c0,1.385-0.601,2.518-1.796,3.395
				c-1.193,0.883-2.731,1.322-4.625,1.322h-0.191C118.176,73.697,115.736,72.958,113.565,71.48z"/>
			<path fill="#404249" d="M139.33,71.48c-2.17-1.479-3.854-3.551-5.049-6.23c-1.194-2.672-1.795-5.674-1.795-9.008V4.72
				c0-1.383,0.437-2.515,1.323-3.396C134.688,0.443,135.818,0,137.205,0c1.382,0,2.514,0.443,3.398,1.324
				c0.878,0.882,1.32,2.013,1.32,3.396v51.521c0,2.328,0.44,4.246,1.318,5.754c0.882,1.508,2.015,2.266,3.401,2.266h2.36
				c1.256,0,2.277,0.438,3.065,1.32c0.787,0.883,1.178,2.016,1.178,3.398c0,1.385-0.597,2.518-1.791,3.395
				c-1.196,0.883-2.736,1.322-4.631,1.322h-0.182C143.935,73.697,141.499,72.958,139.33,71.48z"/>
			<path fill="#404249" d="M163.862,72.33c-0.915-0.91-1.369-2.061-1.369-3.443V26.895c0-1.446,0.454-2.613,1.369-3.491
				c0.909-0.878,2.058-1.324,3.443-1.324c1.444,0,2.61,0.446,3.489,1.324c0.88,0.878,1.32,2.045,1.32,3.491v41.992
				c0,1.383-0.44,2.533-1.32,3.443c-0.879,0.914-2.045,1.367-3.489,1.367C165.92,73.697,164.771,73.244,163.862,72.33z"/>
			<path fill="#404249" d="M230.188,1.324c0.874,0.882,1.318,2.042,1.318,3.491v43.029c0,4.906-1.145,9.357-3.447,13.352
				c-2.291,3.992-5.405,7.141-9.338,9.434c-3.934,2.301-8.322,3.445-13.166,3.445s-9.265-1.145-13.253-3.445
				c-3.996-2.293-7.128-5.441-9.393-9.434c-2.264-3.994-3.392-8.445-3.392-13.352c0-4.91,1.047-9.357,3.159-13.356
				c2.104-3.992,5-7.123,8.676-9.389c3.682-2.261,7.79-3.395,12.316-3.395c3.649,0,7.043,0.754,10.191,2.268
				c3.146,1.506,5.816,3.615,8.021,6.318V4.814c0-1.449,0.455-2.609,1.367-3.491C224.16,0.443,225.309,0,226.694,0
				C228.144,0,229.303,0.443,230.188,1.324z M214.097,63.269c2.547-1.543,4.546-3.662,5.99-6.365
				c1.444-2.707,2.169-5.727,2.169-9.061c0-3.336-0.725-6.338-2.169-9.012c-1.444-2.671-3.443-4.781-5.99-6.321
				c-2.543-1.543-5.391-2.314-8.541-2.314c-3.143,0-5.99,0.771-8.537,2.314c-2.55,1.541-4.563,3.65-6.043,6.321
				c-1.476,2.674-2.216,5.676-2.216,9.012c0,3.334,0.74,6.354,2.216,9.061c1.48,2.703,3.493,4.822,6.043,6.365
				c2.547,1.543,5.395,2.313,8.537,2.313C208.706,65.582,211.554,64.812,214.097,63.269z"/>
			<path fill="#404249" d="M286.771,50.06c-0.815,0.787-1.855,1.182-3.115,1.182H247.8c0.693,4.402,2.69,7.957,5.992,10.66
				c3.306,2.701,7.346,4.059,12.125,4.059c1.889,0,3.854-0.348,5.898-1.037c2.041-0.693,3.729-1.543,5.05-2.549
				c0.882-0.693,1.917-1.039,3.113-1.039s2.138,0.314,2.831,0.943c1.131,0.943,1.696,2.014,1.696,3.211
				c0,1.129-0.499,2.07-1.513,2.828c-2.136,1.699-4.793,3.084-7.969,4.15c-3.174,1.072-6.211,1.605-9.107,1.605
				c-5.157,0-9.782-1.115-13.873-3.35c-4.088-2.232-7.28-5.33-9.575-9.293c-2.293-3.965-3.443-8.461-3.443-13.492
				c0-5.035,1.09-9.551,3.26-13.543c2.166-3.993,5.188-7.108,9.056-9.34c3.868-2.233,8.253-3.352,13.163-3.352
				c4.84,0,9.027,1.071,12.549,3.208c3.522,2.141,6.229,5.126,8.117,8.962c1.884,3.839,2.83,8.246,2.83,13.212
				C288,48.281,287.591,49.275,286.771,50.06z M253.319,33.593c-2.86,2.514-4.669,5.883-5.423,10.1h31.419
				c-0.565-4.217-2.138-7.585-4.714-10.1c-2.58-2.515-5.948-3.774-10.098-3.774C259.913,29.819,256.185,31.078,253.319,33.593z"/>
		</g>
		<g>
			<path fill="#B8D65A" d="M80.542,31.342c0,3.407-2.765,6.176-6.17,6.176c-3.417,0-6.181-2.769-6.181-6.176
				c0-3.41,2.765-6.175,6.181-6.175C77.777,25.167,80.542,27.932,80.542,31.342z"/>
			<path fill="#B8D65A" d="M62.056,34.855c2.954,1.702,3.964,5.482,2.255,8.435c-1.701,2.953-5.475,3.961-8.431,2.26
				c-2.95-1.709-3.964-5.484-2.256-8.436C55.327,34.166,59.1,33.154,62.056,34.855z"/>
			<path fill="#B8D65A" d="M55.854,52.615c2.956-1.697,6.729-0.689,8.435,2.26c1.711,2.957,0.694,6.732-2.26,8.439
				c-2.951,1.705-6.727,0.689-8.431-2.264C51.889,58.101,52.902,54.322,55.854,52.615z"/>
			<circle fill="#B8D65A" cx="74.314" cy="66.871" r="6.175"/>
			<path fill="#B8D65A" d="M86.625,63.355c-2.949-1.701-3.969-5.479-2.256-8.436c1.701-2.951,5.479-3.959,8.433-2.258
				c2.955,1.707,3.962,5.484,2.258,8.438C93.357,64.052,89.58,65.06,86.625,63.355z"/>
			<path fill="#B8D65A" d="M92.827,45.599c-2.952,1.699-6.73,0.689-8.432-2.264c-1.714-2.955-0.694-6.73,2.26-8.438
				c2.949-1.701,6.73-0.69,8.428,2.26C96.788,40.113,95.781,43.894,92.827,45.599z"/>
		</g>
		<path fill="#404249" d="M173.479,6.177c0,3.406-2.768,6.173-6.174,6.173c-3.412,0-6.181-2.768-6.181-6.173
			c0-3.412,2.769-6.177,6.181-6.177C170.712,0,173.479,2.766,173.479,6.177z"/>
	</g>
</g>
</svg>
