<?xml version="1.0" encoding="utf-8"?>
<!-- Generator: Adobe Illustrator 16.0.0, SVG Export Plug-In . SVG Version: 6.00 Build 0)  -->
<!DOCTYPE svg PUBLIC "-//W3C//DTD SVG 1.1//EN" "http://www.w3.org/Graphics/SVG/1.1/DTD/svg11.dtd">
<svg version="1.1" id="Layer_1" xmlns="http://www.w3.org/2000/svg" xmlns:xlink="http://www.w3.org/1999/xlink" x="0px" y="0px"
	 width="42.146px" height="42.147px" viewBox="0 0 42.146 42.147" enable-background="new 0 0 42.146 42.147" xml:space="preserve">
<g>
	<path fill="#3A3B43" d="M21.073,3.483c9.699,0,17.59,7.892,17.59,17.591s-7.891,17.59-17.59,17.59s-17.59-7.891-17.59-17.59
		S11.374,3.483,21.073,3.483 M21.073,0C9.436,0,0,9.436,0,21.074s9.436,21.073,21.073,21.073c11.64,0,21.073-9.435,21.073-21.073
		S32.713,0,21.073,0L21.073,0z"/>
</g>
<g>
	<g>
		<path fill="#418992" d="M32.863,16.813H20.219c-0.564,0-1.022-0.458-1.022-1.022s0.458-1.022,1.022-1.022h12.645
			c0.565,0,1.023,0.458,1.023,1.022S33.429,16.813,32.863,16.813z"/>
	</g>
	<g>
		<path fill="#418992" d="M26.723,20.137h-6.504c-0.564,0-1.022-0.457-1.022-1.022c0-0.564,0.458-1.022,1.022-1.022h6.504
			c0.564,0,1.022,0.458,1.022,1.022C27.745,19.68,27.287,20.137,26.723,20.137z"/>
	</g>
	<g>
		<path fill="#418992" d="M11.584,20.521c-0.271,0-0.531-0.108-0.724-0.3L8.56,17.92c-0.399-0.399-0.399-1.047,0-1.445
			c0.399-0.399,1.047-0.399,1.446,0l1.572,1.572l3.587-3.64c0.396-0.402,1.044-0.407,1.446-0.011s0.407,1.044,0.011,1.445
			l-4.31,4.374c-0.191,0.194-0.453,0.305-0.726,0.306H11.584z"/>
	</g>
	<g>
		<path fill="#418992" d="M32.863,25.902H20.219c-0.564,0-1.022-0.457-1.022-1.022c0-0.564,0.458-1.022,1.022-1.022h12.645
			c0.565,0,1.023,0.458,1.023,1.022C33.887,25.445,33.429,25.902,32.863,25.902z"/>
	</g>
	<g>
		<path fill="#418992" d="M26.723,29.227h-6.504c-0.564,0-1.022-0.458-1.022-1.022s0.458-1.022,1.022-1.022h6.504
			c0.564,0,1.022,0.458,1.022,1.022S27.287,29.227,26.723,29.227z"/>
	</g>
	<g>
		<path fill="#418992" d="M11.584,29.61c-0.271,0-0.531-0.107-0.724-0.3L8.56,27.01c-0.399-0.399-0.399-1.047,0-1.446
			s1.047-0.399,1.446,0l1.572,1.573l3.587-3.64c0.396-0.402,1.044-0.407,1.446-0.012c0.402,0.396,0.407,1.044,0.011,1.446
			l-4.31,4.374c-0.191,0.194-0.453,0.304-0.726,0.305H11.584z"/>
	</g>
</g>
</svg>
