<?xml version="1.0" encoding="utf-8"?>
<!-- Generator: Adobe Illustrator 16.0.0, SVG Export Plug-In . SVG Version: 6.00 Build 0)  -->
<!DOCTYPE svg PUBLIC "-//W3C//DTD SVG 1.1//EN" "http://www.w3.org/Graphics/SVG/1.1/DTD/svg11.dtd">
<svg version="1.1" id="Layer_1" xmlns="http://www.w3.org/2000/svg" xmlns:xlink="http://www.w3.org/1999/xlink" x="0px" y="0px"
	 width="31.334px" height="15.667px" viewBox="0 0 31.334 15.667" enable-background="new 0 0 31.334 15.667" xml:space="preserve">
<g>
	<g>
		<path fill="#FFFFFF" d="M28.158,14.991c-0.005,0.001-0.013,0-0.02,0H3.195c-0.48,0-0.87-0.39-0.87-0.87
			c0-7.356,5.985-13.342,13.342-13.342c7.293,0,13.237,5.881,13.341,13.149c0.014,0.062,0.021,0.126,0.021,0.192
			C29.028,14.602,28.64,14.991,28.158,14.991z M4.098,13.251h23.139C26.79,7.259,21.771,2.52,15.667,2.52S4.544,7.259,4.098,13.251z
			"/>
	</g>
	<g>
		<path fill="#FFFFFF" d="M31.334,14.637c0,0.568-0.461,1.03-1.03,1.03H1.03c-0.569,0-1.03-0.462-1.03-1.03l0,0
			c0-0.569,0.461-1.031,1.03-1.031h29.273C30.873,13.605,31.334,14.067,31.334,14.637L31.334,14.637z"/>
	</g>
	<g>
		<circle fill="#FFFFFF" cx="15.667" cy="0.928" r="0.928"/>
	</g>
</g>
</svg>
