<?xml version="1.0" encoding="utf-8"?>
<!-- Generator: Adobe Illustrator 16.0.0, SVG Export Plug-In . SVG Version: 6.00 Build 0)  -->
<!DOCTYPE svg PUBLIC "-//W3C//DTD SVG 1.1//EN" "http://www.w3.org/Graphics/SVG/1.1/DTD/svg11.dtd">
<svg version="1.1" id="Layer_1" xmlns="http://www.w3.org/2000/svg" xmlns:xlink="http://www.w3.org/1999/xlink" x="0px" y="0px"
	 width="42.146px" height="42.147px" viewBox="0 0 42.146 42.147" enable-background="new 0 0 42.146 42.147" xml:space="preserve">
<g>
	<path fill="#3A3B43" d="M21.073,3.483c9.699,0,17.59,7.892,17.59,17.591c0,9.699-7.891,17.589-17.59,17.589
		s-17.59-7.891-17.59-17.589C3.483,11.375,11.374,3.483,21.073,3.483 M21.073,0C9.436,0,0,9.436,0,21.075
		c0,11.637,9.436,21.073,21.073,21.073c11.64,0,21.073-9.436,21.073-21.073C42.146,9.436,32.713,0,21.073,0L21.073,0z"/>
</g>
<g>
	<g>
		<path fill="#418992" d="M17.056,32.22c-0.537,0-1.075-0.204-1.484-0.613l-1.327-1.328c-0.274-0.275-0.274-0.721,0-0.994
			c0.185-0.185,0.286-0.43,0.286-0.69s-0.102-0.506-0.286-0.69c-0.369-0.368-1.012-0.369-1.381,0
			c-0.132,0.133-0.311,0.206-0.497,0.206l0,0c-0.187,0-0.365-0.073-0.497-0.206l-1.326-1.326c-0.396-0.396-0.615-0.924-0.615-1.484
			c0-0.563,0.218-1.09,0.614-1.486l6.532-6.531v-0.001l6.531-6.531c0.396-0.396,0.924-0.615,1.484-0.616c0,0,0,0,0.001,0
			c0.56,0,1.088,0.218,1.483,0.615l1.328,1.327c0.274,0.274,0.274,0.719,0,0.994c-0.38,0.381-0.38,1.001,0,1.382
			c0.381,0.38,1.001,0.379,1.381,0c0.274-0.274,0.72-0.274,0.994,0l1.326,1.325c0.396,0.397,0.615,0.925,0.615,1.486
			c0,0.561-0.218,1.088-0.615,1.485c0,0-6.438,6.439-6.527,6.53l-6.535,6.535C18.132,32.016,17.594,32.22,17.056,32.22z
			 M15.661,29.706l0.904,0.906c0.272,0.271,0.712,0.27,0.981,0l6.531-6.533l0.049,0.049c0.384-0.48,1.277-1.375,3.217-3.315
			l3.266-3.266c0.132-0.131,0.203-0.305,0.203-0.49c0-0.186-0.072-0.36-0.204-0.492l-0.903-0.903
			c-0.898,0.475-2.04,0.333-2.797-0.421c-0.756-0.756-0.896-1.898-0.422-2.798l-0.906-0.905c-0.262-0.262-0.718-0.262-0.979,0
			L11.536,24.601c-0.13,0.131-0.202,0.305-0.202,0.491c0,0.185,0.072,0.359,0.204,0.491l0.902,0.903
			c0.339-0.18,0.719-0.274,1.113-0.274l0,0c0.637,0,1.235,0.248,1.685,0.697c0.45,0.449,0.698,1.048,0.698,1.685
			C15.937,28.988,15.841,29.368,15.661,29.706z"/>
	</g>
	<g>
		<path fill="#418992" d="M16.296,25.114c-0.204,0.203-0.534,0.203-0.738,0l0,0c-0.204-0.204-0.204-0.533,0-0.738l5.423-5.423
			c0.203-0.203,0.534-0.204,0.738,0l0,0c0.203,0.204,0.203,0.534,0,0.738L16.296,25.114z"/>
	</g>
	<g>
		<path fill="#418992" d="M18.517,25.845c-0.203,0.203-0.534,0.203-0.737,0l0,0c-0.205-0.204-0.203-0.534,0-0.738l3.932-3.932
			c0.204-0.203,0.534-0.205,0.738,0l0,0c0.204,0.203,0.204,0.534,0,0.738L18.517,25.845z"/>
	</g>
	<g>
		<path fill="#418992" d="M20.168,15.609c-0.205-0.205-0.205-0.534,0-0.738l0,0c0.202-0.204,0.533-0.204,0.736,0l1.325,1.325
			c0.205,0.204,0.205,0.534,0,0.738l0,0c-0.203,0.204-0.533,0.203-0.737,0L20.168,15.609z"/>
	</g>
	<g>
		<path fill="#418992" d="M22.689,18.132c-0.203-0.204-0.203-0.534,0-0.737l0,0c0.204-0.205,0.535-0.205,0.738,0l1.326,1.325
			c0.203,0.204,0.203,0.534,0,0.738l0,0c-0.205,0.204-0.534,0.204-0.738-0.001L22.689,18.132z"/>
	</g>
	<g>
		<path fill="#418992" d="M25.214,20.655c-0.204-0.204-0.204-0.534-0.001-0.738l0,0c0.204-0.203,0.534-0.203,0.738,0l1.325,1.326
			c0.205,0.204,0.205,0.534,0,0.738l0,0c-0.203,0.204-0.533,0.203-0.737,0L25.214,20.655z"/>
	</g>
</g>
</svg>
