<svg enable-background="new 0 0 121 121" height="121" viewBox="0 0 121 121" width="121" xmlns="http://www.w3.org/2000/svg"><path d="m60.5 10c27.846 0 50.5 22.654 50.5 50.5s-22.654 50.5-50.5 50.5-50.5-22.654-50.5-50.5 22.654-50.5 50.5-50.5m0-10c-33.413 0-60.5 27.087-60.5 60.5s27.087 60.5 60.5 60.5 60.5-27.087 60.5-60.5-27.087-60.5-60.5-60.5z" fill="#3a3c44"/><g fill="#408a92"><path d="m87.505 83.5h-13.505v-10h10.505v-26h-48.01v26h9.505v10h-12.505c-3.86 0-7-3.141-7-7v-32c0-3.859 3.14-7 7-7h54.01c3.859 0 7 3.141 7 7v32c0 3.859-3.141 7-7 7z"/><path d="m79.493 45.486h-10v-10.986h-17.986v10.986h-10v-13.986c0-3.859 3.141-7 7-7h23.986c3.859 0 7 3.141 7 7z"/><path d="m72.491 102.51h-23.986c-3.859 0-7-3.141-7-7v-36.001h37.986v36.001c0 3.859-3.14 7-7 7zm-20.986-10h17.986v-23.001h-17.986z"/></g></svg>