<?xml version="1.0" encoding="utf-8"?>
<!-- Generator: Adobe Illustrator 16.0.0, SVG Export Plug-In . SVG Version: 6.00 Build 0)  -->
<!DOCTYPE svg PUBLIC "-//W3C//DTD SVG 1.1//EN" "http://www.w3.org/Graphics/SVG/1.1/DTD/svg11.dtd">
<svg version="1.1" id="Layer_1" xmlns="http://www.w3.org/2000/svg" xmlns:xlink="http://www.w3.org/1999/xlink" x="0px" y="0px"
	 width="24.058px" height="23.837px" viewBox="0 0 24.058 23.837" enable-background="new 0 0 24.058 23.837" xml:space="preserve">
<g>
	<g>
		<g>
			<path fill="#FFFFFF" d="M12.251,23.837c-6.508,0-11.803-5.296-11.803-11.805c0-0.908,0.104-1.814,0.309-2.694
				c0.09-0.385,0.475-0.623,0.858-0.534C2,8.894,2.239,9.277,2.149,9.662c-0.181,0.773-0.271,1.57-0.271,2.37
				c0,5.721,4.653,10.375,10.373,10.375c5.722,0,10.377-4.654,10.377-10.375S17.973,1.658,12.251,1.658
				c-1.05,0-2.086,0.156-3.082,0.466C8.793,2.239,8.391,2.03,8.274,1.653C8.157,1.276,8.368,0.876,8.745,0.759
				c1.133-0.352,2.312-0.53,3.506-0.53c6.51,0,11.807,5.295,11.807,11.804S18.761,23.837,12.251,23.837z"/>
		</g>
		<g>
			<g>
				<polygon fill="#FFFFFF" points="9.882,2.653 7.062,2.23 8.838,0 				"/>
			</g>
		</g>
		<g>
			<g>
				<polygon fill="#FFFFFF" points="2.718,10.338 2.104,7.554 0,9.478 				"/>
			</g>
		</g>
	</g>
	<g>
		<path fill="#FFFFFF" d="M8.322,18.438c-0.16,0-0.32-0.054-0.453-0.162c-0.306-0.251-0.35-0.701-0.1-1.006l3.808-4.638V4.903
			c0-0.395,0.32-0.715,0.715-0.715s0.715,0.32,0.715,0.715v7.984c0,0.165-0.058,0.326-0.162,0.453l-3.97,4.835
			C8.733,18.349,8.528,18.438,8.322,18.438z"/>
	</g>
</g>
</svg>
