<?xml version="1.0" encoding="utf-8"?>
<!-- Generator: Adobe Illustrator 16.0.0, SVG Export Plug-In . SVG Version: 6.00 Build 0)  -->
<!DOCTYPE svg PUBLIC "-//W3C//DTD SVG 1.1//EN" "http://www.w3.org/Graphics/SVG/1.1/DTD/svg11.dtd">
<svg version="1.1" id="Layer_1" xmlns="http://www.w3.org/2000/svg" xmlns:xlink="http://www.w3.org/1999/xlink" x="0px" y="0px"
	 width="42.146px" height="42.147px" viewBox="0 0 42.146 42.147" enable-background="new 0 0 42.146 42.147" xml:space="preserve">
<path fill="#3A3C44" d="M21.073,3.483c9.699,0,17.59,7.891,17.59,17.591c0,9.699-7.891,17.59-17.59,17.59s-17.59-7.891-17.59-17.59
	C3.483,11.374,11.374,3.483,21.073,3.483 M21.073,0C9.436,0,0,9.436,0,21.074c0,11.638,9.436,21.073,21.073,21.073
	c11.64,0,21.073-9.436,21.073-21.073C42.146,9.436,32.713,0,21.073,0L21.073,0z"/>
<g>
	<path fill="#408B93" d="M30.054,10.911h-2.387v2.832c0,0.076-0.063,0.139-0.138,0.139h-2.098c-0.075,0-0.137-0.063-0.137-0.139
		v-2.832h-8.453v2.832c0,0.076-0.062,0.139-0.139,0.139h-2.096c-0.076,0-0.138-0.063-0.138-0.139v-2.832h-2.378
		c-0.652,0-1.182,0.529-1.182,1.182v17.962c0,0.652,0.529,1.182,1.182,1.182h17.962c0.652,0,1.183-0.529,1.183-1.182V12.093
		C31.236,11.44,30.706,10.911,30.054,10.911z M28.863,27.973c0,0.492-0.398,0.891-0.892,0.891H14.174
		c-0.492,0-0.891-0.398-0.891-0.891v-9.231c0-0.492,0.398-0.892,0.891-0.892h13.798c0.493,0,0.892,0.399,0.892,0.892V27.973z"/>
</g>
<polygon fill="#408B93" points="21.072,20.196 22.117,22.315 24.456,22.655 22.765,24.304 23.164,26.632 21.072,25.533 
	18.981,26.632 19.381,24.304 17.689,22.655 20.027,22.315 "/>
</svg>
