<?xml version="1.0" encoding="utf-8"?>
<!-- Generator: Adobe Illustrator 16.0.0, SVG Export Plug-In . SVG Version: 6.00 Build 0)  -->
<!DOCTYPE svg PUBLIC "-//W3C//DTD SVG 1.1//EN" "http://www.w3.org/Graphics/SVG/1.1/DTD/svg11.dtd">
<svg version="1.1" id="Layer_1" xmlns="http://www.w3.org/2000/svg" xmlns:xlink="http://www.w3.org/1999/xlink" x="0px" y="0px"
	 width="42.146px" height="42.147px" viewBox="0 0 42.146 42.147" enable-background="new 0 0 42.146 42.147" xml:space="preserve">
<g>
	<path fill="#FFFFFF" d="M21.073,0C9.436,0,0,9.436,0,21.074c0,11.638,9.436,21.073,21.073,21.073
		c11.64,0,21.073-9.436,21.073-21.073C42.146,9.436,32.713,0,21.073,0z M21.073,38.664c-9.699,0-17.59-7.891-17.59-17.59
		s7.891-17.59,17.59-17.59s17.59,7.891,17.59,17.59S30.772,38.664,21.073,38.664z"/>
	<polygon fill="#FFFFFF" points="29.708,20.838 29.708,20.838 29.708,20.838 	"/>
	<polygon fill="#FFFFFF" points="12.438,20.838 12.439,20.839 12.439,20.838 	"/>
	<path fill="#FFFFFF" d="M31.707,17.293c0-1.655-1.348-3.002-3.004-3.002h-3.002v-0.998c0-1.655-1.348-3.002-3.004-3.002h-3.248
		c-1.656,0-3.004,1.347-3.004,3.003v0.997h-3.002c-1.656,0-3.004,1.347-3.004,3.003v5.37l-0.001,5.374
		c0,1.656,1.348,3.003,3.005,3.003h15.259c1.657,0,3.005-1.347,3.005-3.003l0.001-5.372L31.707,17.293z M18.445,13.294
		c0-0.554,0.449-1.003,1.004-1.003h3.248c0.555,0,1.004,0.449,1.004,1.003v0.997h-5.256V13.294z M12.439,17.294
		c0-0.554,0.449-1.003,1.004-1.003h3.002h1h1h5.256h1h1h3.002c0.555,0,1.004,0.449,1.004,1.003v2.557
		c-0.106,0-0.215,0.005-0.321,0.041c-0.026,0.009-1.448,0.489-3.235,0.947c-0.148,0.038-0.296,0.076-0.449,0.114
		c-0.326,0.08-0.662,0.156-1,0.229c-0.267,0.058-0.533,0.112-0.801,0.163v-0.505v0c0-0.215-0.083-0.404-0.198-0.567
		c-0.182-0.255-0.465-0.433-0.802-0.433h-3.654c-0.337,0-0.62,0.177-0.801,0.432c-0.116,0.163-0.199,0.352-0.199,0.567v0v0.537
		c-0.27-0.048-0.537-0.101-0.802-0.157c-0.341-0.072-0.675-0.148-0.999-0.228c-0.206-0.05-0.406-0.101-0.602-0.153
		c-1.729-0.455-3.035-0.929-3.061-0.938c-0.113-0.042-0.229-0.053-0.344-0.053V17.294z M21.9,21.839v0.79v0.864h-1.654v-0.858
		v-0.796H21.9z M29.708,22.666l-0.001,5.372c0,0.554-0.449,1.003-1.005,1.003H13.443c-0.556,0-1.005-0.449-1.005-1.003l0.001-5.369
		v-0.006v-0.764c0.663,0.23,2.204,0.736,4.005,1.149c0.327,0.075,0.66,0.146,1,0.213c0.265,0.052,0.532,0.1,0.802,0.144v1.088
		c0,0.552,0.447,1,1,1H22.9c0.553,0,1-0.448,1-1v-1.115c0.268-0.047,0.534-0.098,0.801-0.152c0.338-0.069,0.672-0.143,1-0.219
		c1.774-0.412,3.348-0.901,4.007-1.116V22.666z"/>
</g>
</svg>
