<svg enable-background="new 0 0 44.999 45" height="45" viewBox="0 0 44.999 45" width="44.999" xmlns="http://www.w3.org/2000/svg"><path d="m22.499 3.719c10.355 0 18.781 8.426 18.781 18.781s-8.426 18.781-18.781 18.781-18.78-8.426-18.78-18.781 8.425-18.781 18.78-18.781m0-3.719c-12.426 0-22.499 10.074-22.499 22.5s10.073 22.5 22.499 22.5 22.5-10.074 22.5-22.5-10.074-22.5-22.5-22.5z" fill="#3a3c44"/><g fill="#408b93"><path d="m29.107 32.078-.339-.031-17.964-3.329c-1.29-.113-2.306-1.199-2.306-2.519v-7.362c0-1.318 1.016-2.405 2.306-2.519l18.303-3.36c1.395 0 2.528 1.134 2.528 2.528v14.062c.001 1.395-1.133 2.53-2.528 2.53zm-16.889-6.881 15.699 2.91v-11.178l-15.699 2.91z"/><path d="m17.897 35.02c-.37 0-.744-.038-1.118-.118-3.136-.671-5.092-4.003-4.359-7.427l3.637.777c-.304 1.419.37 2.771 1.5 3.013 1.138.245 2.298-.717 2.601-2.137l3.637.777c-.646 3.016-3.163 5.115-5.898 5.115z"/><path d="m13.449 17.374h3.719v10.202h-3.719z"/><path d="m36.874 23.22h-4.35c-.411 0-.744-.333-.744-.744s.333-.744.744-.744h4.35c.411 0 .744.333.744.744s-.333.744-.744.744z"/><path d="m36.058 27.574c-.067 0-.136-.01-.203-.028l-3.533-1.005c-.396-.112-.625-.524-.513-.919.113-.396.527-.62.919-.513l3.533 1.005c.396.112.625.524.513.919-.094.327-.392.541-.716.541z"/><path d="m32.524 19.869c-.324 0-.622-.214-.716-.54-.112-.396.117-.807.512-.92l3.533-1.006c.398-.106.807.118.92.512.112.396-.117.807-.512.92l-3.533 1.006c-.068.018-.136.028-.204.028z"/></g></svg>