<svg enable-background="new 0 0 45 45" height="45" viewBox="0 0 45 45" width="45" xmlns="http://www.w3.org/2000/svg"><path d="m22.499 3.719c10.356 0 18.782 8.426 18.782 18.781s-8.426 18.781-18.782 18.781c-10.355 0-18.78-8.426-18.78-18.781s8.425-18.781 18.78-18.781m0-3.719c-12.427 0-22.499 10.074-22.499 22.5s10.072 22.5 22.499 22.5 22.501-10.074 22.501-22.5-10.075-22.5-22.501-22.5z" fill="#3a3c44"/><g fill="#408b93"><path d="m20.318 30.023c-.384 0-.751-.119-1.057-.329-.001-.001-.003-.003-.006-.004-.018-.013-.037-.026-.054-.04-.037-.026-.078-.057-.092-.067-.699-.527-1.366-1.109-1.994-1.737-.611-.61-1.179-1.261-1.689-1.934-.016-.019-.031-.037-.039-.047-.06-.075-.111-.147-.163-.229-.55-.867-.293-2.016.574-2.566.845-.535 1.953-.306 2.519.503.017.021.033.041.049.062.413.548.877 1.08 1.379 1.581.507.508 1.042.975 1.592 1.39.033.022.066.047.099.072.45.34.741.879.741 1.486 0 1.027-.832 1.859-1.859 1.859z"/><path d="m23.556 36.664c-3.361 0-7.233-1.731-10.379-4.877-4.58-4.58-6.164-10.698-3.765-14.547.264-.426.581-.826.941-1.187l.516-.516c.568-.568 1.287-.933 2.079-1.054.614-.099 1.261-.034 1.86.184.513.189.968.479 1.356.865l2.949 2.949c.708.707 1.098 1.648 1.098 2.649s-.39 1.942-1.098 2.65l-.802.803c-.001.001-.003.003-.004.004-.004.004-.009.009-.013.013-.002.002-.004.004-.008.007-.007.007-.014.014-.021.02-.035.033-.086.082-.101.095-.764.685-1.939.623-2.626-.142-.686-.764-.623-1.939.142-2.626v.001l.803-.804-2.944-2.985-.555.515c-.158.159-.297.335-.414.521-1.269 2.036-.404 6.314 3.236 9.953 3.64 3.64 7.917 4.504 9.949 3.238.121-.075.23-.155.335-.241.061-.051.126-.111.19-.175l.44-.44c.015-.035.032-.085.047-.139l-2.917-2.921-.83.792c-.069.075-.145.146-.222.209-.771.616-1.889.524-2.547-.212-.647-.723-.628-1.818.035-2.519.033-.036.068-.072.089-.094l.805-.806c1.462-1.461 3.839-1.462 5.301 0l2.944 2.945c.39.39.682.848.869 1.36.196.532.29.978.182 1.661-.065.429-.3 1.526-1.053 2.278l-.513.513c-.144.144-.293.28-.447.409-.242.199-.489.379-.747.538-1.202.753-2.629 1.113-4.16 1.113z"/><path d="m16.881 26.613c-.476 0-.952-.182-1.315-.545-.062-.062-.133-.145-.196-.227v.001c-.029-.038-.057-.077-.083-.115-.018-.025-.035-.05-.051-.075-.736-1.134-.601-2.6.326-3.58.008-.009.017-.019.026-.027.01-.012.022-.023.035-.036.023-.022.046-.045.069-.065.015-.014.029-.027.044-.04.332-.306.774-.492 1.26-.492 1.027 0 1.859.832 1.859 1.859 0 .315-.078.612-.216.872.226.652.079 1.405-.442 1.926-.364.363-.84.544-1.316.544z"/><path d="m20.889 30.191c-.551 0-1.104-.154-1.589-.471-.087-.055-.202-.139-.311-.234-.771-.678-.847-1.853-.169-2.624.52-.59 1.331-.771 2.027-.522.634-.303 1.412-.228 1.987.252.789.657.896 1.83.238 2.619-.037.044-.078.088-.12.131-.559.56-1.308.849-2.063.849z"/><path d="m35.435 27.852c-1.027 0-1.859-.832-1.859-1.859 0-8.038-6.54-14.578-14.578-14.578-1.027 0-1.859-.832-1.859-1.859s.833-1.859 1.859-1.859c10.089 0 18.297 8.208 18.297 18.297-.001 1.026-.833 1.858-1.86 1.858z"/></g><path d="m18.998 14.191c6.303 0 11.41 5.108 11.411 11.41" style="fill:none;stroke:#408b93;stroke-width:3.7191;stroke-linecap:round;stroke-linejoin:round;stroke-miterlimit:10"/></svg>