<?xml version="1.0" encoding="utf-8"?>
<!-- Generator: Adobe Illustrator 16.0.0, SVG Export Plug-In . SVG Version: 6.00 Build 0)  -->
<!DOCTYPE svg PUBLIC "-//W3C//DTD SVG 1.1//EN" "http://www.w3.org/Graphics/SVG/1.1/DTD/svg11.dtd">
<svg version="1.1" id="Layer_1" xmlns="http://www.w3.org/2000/svg" xmlns:xlink="http://www.w3.org/1999/xlink" x="0px" y="0px"
	 width="42.146px" height="42.147px" viewBox="0 0 42.146 42.147" enable-background="new 0 0 42.146 42.147" xml:space="preserve">
<g>
	<g>
		<path fill="#FFFFFF" d="M21.073,3.483c9.699,0,17.59,7.892,17.59,17.591s-7.891,17.59-17.59,17.59s-17.59-7.891-17.59-17.59
			S11.374,3.483,21.073,3.483 M21.073,0C9.436,0,0,9.436,0,21.074c0,11.638,9.436,21.073,21.073,21.073
			c11.64,0,21.073-9.436,21.073-21.073C42.146,9.436,32.713,0,21.073,0L21.073,0z"/>
	</g>
	<g>
		<path fill="none" d="M25.01,11.101c-0.326,0-0.643,0.105-0.914,0.305c-0.152,0.113-0.346,0.16-0.533,0.124
			c-0.188-0.033-0.354-0.141-0.459-0.3c-0.063-0.096-0.148-0.17-0.221-0.257c-0.603-0.724-1.478-1.165-2.43-1.165
			c-0.918,0-1.795,0.41-2.407,1.126c-0.015,0.017-0.034,0.024-0.05,0.039c-0.247,0.239-0.63,0.271-0.905,0.06
			c-0.034-0.026-0.074-0.036-0.108-0.06c-0.347-0.237-0.735-0.378-1.142-0.378c-0.545,0-1.037,0.217-1.406,0.563
			c-0.399,0.376-0.653,0.906-0.653,1.497c0,0.301,0.072,0.602,0.215,0.894c0.083,0.17,0.094,0.366,0.028,0.544
			c-0.064,0.177-0.198,0.321-0.37,0.397c-0.259,0.115-0.471,0.293-0.656,0.492c-0.348,0.374-0.567,0.857-0.567,1.385
			c0,0.601,0.273,1.155,0.722,1.545c0.063,0.054,0.116,0.114,0.185,0.161c0.185,0.125,0.298,0.331,0.305,0.554
			s-0.092,0.435-0.268,0.571c-0.055,0.043-0.098,0.094-0.146,0.143c-0.289,0.29-0.459,0.669-0.459,1.076
			c0,0.485,0.229,0.915,0.579,1.2c0.268,0.218,0.604,0.354,0.975,0.354c0.855,0,1.552-0.697,1.552-1.554
			c-0.001-0.007-0.016-0.121-0.017-0.128c-0.021-0.21,0.054-0.419,0.204-0.567s0.361-0.227,0.57-0.195
			c0.004,0,0.074,0.009,0.092,0.012c0.002,0,0.008,0.001,0.008,0.001c0.04,0.006,0.08,0.014,0.12,0.014
			c1.136,0,2.061-0.925,2.061-2.061c0-0.167-0.029-0.345-0.091-0.56c-0.069-0.24-0.005-0.499,0.169-0.678
			c0.174-0.18,0.431-0.253,0.672-0.19c0.304,0.077,0.555,0.113,0.79,0.113c1.177,0,2.262-0.674,2.81-1.722
			c0.021-0.04,0.047-0.077,0.066-0.118c0.081-0.173,0.229-0.305,0.411-0.365c0.179-0.06,0.378-0.044,0.547,0.046
			c1.077,0.57,2.276-0.265,2.276-1.363C26.563,11.798,25.866,11.101,25.01,11.101z"/>
		<path fill="#FFFFFF" d="M27.573,11.231c-0.503-0.904-1.457-1.523-2.563-1.523c-0.396,0-0.783,0.08-1.145,0.234
			c-0.862-0.967-2.097-1.527-3.412-1.527c-1.124,0-2.202,0.422-3.039,1.175c-0.487-0.255-1.022-0.388-1.573-0.388
			c-1.903,0-3.452,1.549-3.452,3.452c0,0.301,0.04,0.598,0.121,0.89c-0.91,0.639-1.472,1.688-1.472,2.822
			c0,0.87,0.327,1.696,0.901,2.326c-0.363,0.496-0.563,1.095-0.563,1.724c0,1.313,0.868,2.414,2.056,2.794l0.388,7.329
			c0,1.345,1.093,2.438,2.437,2.438h9.346c1.344,0,2.437-1.094,2.435-2.347l0.903-17.22C28.94,12.452,28.38,11.629,27.573,11.231z
			 M24.611,29.495H17.25l-0.4-7.574c0.181-0.302,0.312-0.637,0.374-0.996c1.706-0.184,3.044-1.613,3.082-3.358
			c1.595,0.057,3.097-0.751,3.964-2.064c0.243,0.065,0.49,0.099,0.74,0.099c0.113,0,0.222-0.021,0.332-0.033L24.611,29.495z
			 M24.287,14.018c-0.169-0.09-0.368-0.105-0.547-0.046c-0.182,0.061-0.33,0.192-0.411,0.365c-0.02,0.041-0.045,0.078-0.066,0.118
			c-0.548,1.048-1.633,1.722-2.81,1.722c-0.235,0-0.486-0.036-0.79-0.113c-0.241-0.063-0.498,0.011-0.672,0.19
			c-0.174,0.179-0.238,0.438-0.169,0.678c0.062,0.215,0.091,0.393,0.091,0.56c0,1.136-0.925,2.061-2.061,2.061
			c-0.04,0-0.08-0.008-0.119-0.014c0,0-0.007-0.001-0.009-0.001c-0.018-0.003-0.088-0.012-0.092-0.012
			c-0.209-0.031-0.42,0.047-0.57,0.195s-0.226,0.357-0.204,0.567c0.001,0.007,0.016,0.121,0.017,0.128
			c0,0.856-0.696,1.554-1.552,1.554c-0.371,0-0.707-0.136-0.975-0.354c-0.351-0.285-0.579-0.715-0.579-1.2
			c0-0.407,0.17-0.786,0.459-1.076c0.048-0.049,0.091-0.1,0.146-0.143c0.176-0.137,0.274-0.349,0.268-0.571s-0.12-0.429-0.305-0.554
			c-0.068-0.047-0.122-0.107-0.185-0.161c-0.448-0.39-0.722-0.944-0.722-1.545c0-0.527,0.22-1.011,0.567-1.385
			c0.186-0.199,0.397-0.377,0.656-0.492c0.172-0.076,0.306-0.221,0.37-0.397c0.065-0.178,0.055-0.374-0.028-0.544
			c-0.143-0.292-0.215-0.593-0.215-0.894c0-0.591,0.254-1.121,0.653-1.497c0.369-0.346,0.861-0.563,1.406-0.563
			c0.406,0,0.795,0.141,1.142,0.378c0.034,0.023,0.074,0.033,0.108,0.06c0.275,0.212,0.658,0.18,0.905-0.06
			c0.016-0.015,0.035-0.022,0.05-0.039c0.612-0.716,1.489-1.126,2.407-1.126c0.952,0,1.827,0.441,2.43,1.165
			c0.072,0.087,0.157,0.161,0.221,0.257c0.105,0.159,0.271,0.267,0.459,0.3c0.188,0.036,0.381-0.011,0.533-0.124
			c0.271-0.199,0.588-0.305,0.914-0.305c0.856,0,1.554,0.697,1.554,1.554C26.563,13.753,25.364,14.588,24.287,14.018z"/>
	</g>
</g>
</svg>
