<?xml version="1.0" encoding="utf-8"?>
<!-- Generator: Adobe Illustrator 16.0.0, SVG Export Plug-In . SVG Version: 6.00 Build 0)  -->
<!DOCTYPE svg PUBLIC "-//W3C//DTD SVG 1.1//EN" "http://www.w3.org/Graphics/SVG/1.1/DTD/svg11.dtd">
<svg version="1.1" id="Layer_1" xmlns="http://www.w3.org/2000/svg" xmlns:xlink="http://www.w3.org/1999/xlink" x="0px" y="0px"
	 width="13.196px" height="21.077px" viewBox="0 0 13.196 21.077" enable-background="new 0 0 13.196 21.077" xml:space="preserve">
<g>
	<path fill="#FFFFFF" d="M6.598,1.74c2.683,0,4.858,2.176,4.858,4.858c0,1.554-0.732,2.933-1.866,3.822l1.788,8.916H1.819
		l1.788-8.916C2.472,9.531,1.74,8.152,1.74,6.599C1.74,3.916,3.915,1.74,6.598,1.74 M6.598,0C2.96,0,0,2.96,0,6.599
		c0,1.659,0.613,3.223,1.71,4.428l-1.598,7.969c-0.102,0.511,0.03,1.041,0.36,1.444c0.331,0.404,0.825,0.638,1.346,0.638h9.559
		c0.521,0,1.016-0.233,1.346-0.638c0.331-0.403,0.462-0.934,0.36-1.444l-1.598-7.969c1.097-1.205,1.71-2.769,1.71-4.428
		C13.196,2.96,10.236,0,6.598,0L6.598,0z"/>
</g>
</svg>
