<?xml version="1.0" encoding="utf-8"?>
<!-- Generator: Adobe Illustrator 16.0.0, SVG Export Plug-In . SVG Version: 6.00 Build 0)  -->
<!DOCTYPE svg PUBLIC "-//W3C//DTD SVG 1.1//EN" "http://www.w3.org/Graphics/SVG/1.1/DTD/svg11.dtd">
<svg version="1.1" id="Layer_1" xmlns="http://www.w3.org/2000/svg" xmlns:xlink="http://www.w3.org/1999/xlink" x="0px" y="0px"
	 width="24.382px" height="15.004px" viewBox="0 0 24.382 15.004" enable-background="new 0 0 24.382 15.004" xml:space="preserve">
<g>
	<g>
		<path fill="#FFFFFF" d="M20.814,15.004H3.568C1.601,15.004,0,13.403,0,11.437V3.567C0,1.601,1.601,0,3.568,0h17.246
			c1.967,0,3.568,1.601,3.568,3.567v7.869C24.382,13.403,22.781,15.004,20.814,15.004z M3.568,1.74C2.56,1.74,1.74,2.56,1.74,3.567
			v7.869c0,1.008,0.82,1.827,1.828,1.827h17.246c1.008,0,1.828-0.819,1.828-1.827V3.567c0-1.008-0.82-1.827-1.828-1.827H3.568z"/>
	</g>
	<g>
		<path fill="#FFFFFF" d="M12.191,9.177c-0.168,0-0.337-0.049-0.483-0.146l-9.69-6.47c-0.4-0.267-0.508-0.807-0.241-1.207
			c0.267-0.399,0.807-0.508,1.207-0.24l9.208,6.147l9.208-6.147c0.399-0.268,0.94-0.159,1.207,0.24
			c0.267,0.4,0.159,0.94-0.241,1.207l-9.69,6.47C12.528,9.128,12.359,9.177,12.191,9.177z"/>
	</g>
</g>
</svg>
