<?xml version="1.0" encoding="utf-8"?>
<!-- Generator: Adobe Illustrator 16.0.0, SVG Export Plug-In . SVG Version: 6.00 Build 0)  -->
<!DOCTYPE svg PUBLIC "-//W3C//DTD SVG 1.1//EN" "http://www.w3.org/Graphics/SVG/1.1/DTD/svg11.dtd">
<svg version="1.1" id="Layer_1" xmlns="http://www.w3.org/2000/svg" xmlns:xlink="http://www.w3.org/1999/xlink" x="0px" y="0px"
	 width="42.146px" height="42.147px" viewBox="0 0 42.146 42.147" enable-background="new 0 0 42.146 42.147" xml:space="preserve">
<g>
	<path fill="#3A3B43" d="M21.073,3.483c9.699,0,17.59,7.892,17.59,17.591s-7.891,17.59-17.59,17.59s-17.59-7.891-17.59-17.59
		S11.374,3.483,21.073,3.483 M21.073,0C9.436,0,0,9.436,0,21.074c0,11.638,9.436,21.073,21.073,21.073
		c11.64,0,21.073-9.436,21.073-21.073C42.146,9.436,32.713,0,21.073,0L21.073,0z"/>
</g>
<g>
	<path fill="#418992" d="M19.09,22.328c-0.105-0.116-0.255-0.185-0.411-0.187l-0.265,0.018l-5.9,5.9v-3.946
		c0-0.308-0.251-0.564-0.571-0.572l-1.082,0.001c-0.314,0-0.57,0.256-0.57,0.571l-0.003,7.175c0,0.315,0.257,0.571,0.573,0.571
		h7.172c0.315,0,0.572-0.257,0.572-0.572l-0.002-1.044c0.012-0.161-0.046-0.319-0.159-0.436l-0.2-0.172h-4.16l5.753-5.752
		c0.224-0.224,0.224-0.586,0-0.81L19.09,22.328z"/>
	<path fill="#418992" d="M31.287,10.287l-7.175,0.003c-0.315,0-0.571,0.256-0.571,0.571l-0.001,1.094
		c0.008,0.309,0.265,0.56,0.572,0.56h3.946l-5.744,5.744l-0.178,0.203l0.029,0.467l0.914,0.914c0.111,0.107,0.255,0.16,0.399,0.16
		c0.146,0,0.294-0.056,0.404-0.166l5.751-5.753v3.938c-0.004,0.157,0.059,0.312,0.172,0.422l0.196,0.161l1.284,0.001
		c0.315,0,0.572-0.257,0.572-0.572v-7.175C31.859,10.543,31.603,10.287,31.287,10.287z"/>
	<path fill="#418992" d="M31.287,23.542l-1.056,0.002c-0.182-0.013-0.315,0.053-0.429,0.165l-0.167,0.199l-0.001,4.155l-5.751-5.753
		c-0.221-0.221-0.581-0.222-0.81,0l-0.932,0.948l-0.002,0.215l0.02,0.261l5.898,5.898l-3.946,0.001
		c-0.308,0-0.564,0.251-0.572,0.571l0.001,1.081c0,0.315,0.256,0.571,0.571,0.571l7.176,0.003c0.315,0,0.571-0.256,0.571-0.574
		v-7.172C31.859,23.799,31.603,23.542,31.287,23.542z"/>
	<path fill="#418992" d="M14.084,12.512l3.925-0.001c0.161,0.024,0.317-0.053,0.43-0.166l0.166-0.196V10.86
		c0-0.315-0.257-0.572-0.572-0.572h-7.174c-0.315,0-0.571,0.256-0.571,0.571l0.003,7.175c0,0.315,0.256,0.572,0.57,0.572h1.082
		c0.315,0,0.571-0.257,0.571-0.572l0.001-3.945l5.743,5.743c0.107,0.111,0.257,0.175,0.41,0.175c0.004,0,0.007-0.001,0.011-0.001
		l0.25-0.025l0.914-0.913c0.216-0.224,0.216-0.574-0.006-0.804L14.084,12.512z"/>
</g>
</svg>
